<?xml version="1.0" encoding="UTF-8" standalone="no"?>
<svg
   style="color: #07141c"
   xmlns:dc="http://purl.org/dc/elements/1.1/"
   xmlns:cc="http://creativecommons.org/ns#"
   xmlns:rdf="http://www.w3.org/1999/02/22-rdf-syntax-ns#"
   xmlns:svg="http://www.w3.org/2000/svg"
   xmlns="http://www.w3.org/2000/svg"
   viewBox="0 0 577.45831 556.44019"
   height="556.44019"
   width="577.45831"
   id="svg815"
   version="1.1">
  <metadata
     id="metadata821">
    <rdf:RDF>
      <cc:Work
         rdf:about="">
        <dc:format>image/svg+xml</dc:format>
        <dc:type
           rdf:resource="http://purl.org/dc/dcmitype/StillImage" />
        <dc:title></dc:title>
      </cc:Work>
    </rdf:RDF>
  </metadata>
  <defs
     id="defs819" />
  <g
     transform="translate(-28.485885,-17.820596)"
     id="layer1">
    <path
       id="path828"
       d="M 501.31836,17.820312 487.625,35.896484 c 54.12084,41.000638 90.46141,106.912736 95.13477,175.865236 4.67335,68.9525 -21.4919,140.84929 -93.83204,196.59766 l 13.8418,17.96093 C 580.56147,366.37056 610.52509,286.06887 605.38477,210.22656 600.24444,134.38426 560.82959,62.904584 501.31836,17.820312 Z"/>
    <path
       id="path830"
       d="M 190.32617,344.42188 28.486328,505.91797 71.201172,548.72461 233.04102,387.22852 Z" />
    <path
       id="path856"
       d="m 329.84375,42.476562 -7.14844,2.460938 c 22.83087,66.32968 20.4679,138.53587 7.0625,200.61133 -13.4054,62.07546 -38.00053,114.08685 -58.52539,139.33008 l 5.86328,4.76953 c 21.8415,-26.86255 46.42936,-79.42814 60.05078,-142.50391 13.62143,-63.07577 16.12853,-136.594 -7.30273,-204.667968 z" />
    <path
       id="path858"
       d="m 428.74414,137.98828 c -22.04859,13.98605 -63.8499,25.22441 -110.4043,31.68555 -46.55439,6.46113 -98.00956,8.33943 -139.98046,4.58594 l -0.67188,7.52929 c 42.73664,3.82198 94.58543,1.91074 141.69141,-4.62695 47.10598,-6.53769 89.32115,-17.5082 113.41406,-32.79102 z" />
    <path
       id="path860"
       d="m 399.95508,321.31836 c -29.111,21.32549 -64.61216,36.51594 -154.16992,46.4668 l 0.83593,7.51367 C 336.80861,365.278 374.30645,349.47731 404.42188,327.41602 Z" />
    <path
       id="path869"
       d="m 395.05078,35.173828 -9.98047,6.841797 C 460.14481,151.53887 441.10449,316.87967 333.1582,404.85352 l 7.64453,9.3789 c 113.138,-92.20497 133.056,-264.08876 54.24805,-379.058592 z" />
    <path
       id="path862"
       d="m 429.12302,69.644358 4.47641,6.198113 11.70755,27.202829 -14.46227,15.66745 9.29717,12.48231 14.80661,15.75354 -3.70165,8.26415 -3.35732,4.03517 3.17217,6.75677 -9.37028,0.57127 0.51651,12.99882 -2.49646,5.25118 4.99292,11.87971 3.27123,-0.43042 5.25118,-7.57547 8.43632,10.41627 14.8066,8.86675 3.78774,0.68868 5.85377,8.86674 1.7217,27.9776 3.52948,2.8408 -1.89387,29.18278 2.23821,20.40212 -0.77476,11.9658 -7.48939,1.80779 -7.66155,-3.35731 -1.46343,-4.04599 -3.5295,-2.41038 -4.30424,0.60259 -4.30425,3.01297 1.03302,4.39033 7.91981,8.17807 4.21816,11.53538 11.19104,12.65448 0.77476,7.66156 3.95991,6.28419 -8.26415,4.82076 -2.23821,3.27122 -7.91981,4.39033 -7.31722,-2.8408 -3.35731,5.07901 -18.76651,11.79363 -37.70519,-17.73349 -5.07901,9.7276 -5.07901,-0.77477 -3.27122,5.25118 -20.83255,-7.05896 4.64858,-6.88679 1.89387,-13.34316 -8.17806,-6.62854 -9.03892,1.54953 -7.66155,-5.59552 -9.81368,-0.43042 -11.10496,-17.81958 4.64859,-5.33726 -4.99293,-5.76769 -2.06603,-10.93279 2.32429,-3.27122 7.14505,3.01297 7.48938,-15.23703 18.42217,-13.51533 16.35613,8.17807 2.3243,-11.27713 -1.63562,-6.02594 7.57547,-4.04599 10.07194,-17.47523 -6.88679,-6.45637 1.63561,-37.27477 21.52123,-2.92688 -4.64859,-9.125 -21.17689,7.74764 -7.66155,-3.4434 -8.26415,-23.15684 -1.80779,-21.86556 0.94694,-7.05897 5.42335,-4.5625 -0.51651,-5.25117 -10.33019,-1.63562 -5.33727,-11.79363 -3.35731,-2.41038 -1.63561,-12.568391 -7.83373,-7.489386 12.5684,-14.117925 11.46725,8.839064 1.78983,0.02768 1.43457,-2.7765 -2.63976,-5.83199 2.53038,-0.825655 7.2833,3.580372 14.03184,1.635613 10.84669,-1.549528 z" />
    <path
       id="path862-7"
       d="m 429.76773,65.917779 a 3.5909102,3.5909102 0 0 0 -1.94336,0.470703 l -19.28906,11.023437 -9.70898,1.386719 -12.95508,-1.511719 -6.72852,-3.30664 a 3.5909102,3.5909102 0 0 0 -2.69726,-0.191406 l -2.53125,0.826171 a 3.5909102,3.5909102 0 0 0 -2.15625,4.892579 l 0.3457,0.763671 -6.93555,-5.345703 a 3.5909102,3.5909102 0 0 0 -4.87304,0.457032 l -12.56836,14.117192 a 3.5909102,3.5909102 0 0 0 0.20117,4.98242 l 6.91797,6.615225 1.4707,11.31055 a 3.5909102,3.5909102 0 0 0 1.4668,2.45312 l 2.57617,1.84961 4.94141,10.91797 a 3.5909102,3.5909102 0 0 0 2.70898,2.06641 l 7.58984,1.20312 0.0606,0.60742 -3.97656,3.34571 a 3.5909102,3.5909102 0 0 0 -1.2461,2.26953 l -0.94726,7.05859 a 3.5909102,3.5909102 0 0 0 -0.0195,0.77344 l 1.80664,21.86523 a 3.5909102,3.5909102 0 0 0 0.19726,0.91211 l 8.26368,23.15625 a 3.5909102,3.5909102 0 0 0 1.91015,2.06836 l 7.66211,3.44336 a 3.5909102,3.5909102 0 0 0 2.2793,0.21875 3.5909102,3.5909102 0 0 0 -0.0899,0.65235 l -1.63671,37.27539 a 3.5909102,3.5909102 0 0 0 1.13085,2.77734 l 4.81055,4.50977 -8.13672,14.11914 -6.66992,3.5625 a 3.5909102,3.5909102 0 0 0 -1.77344,4.10742 l 1.41211,5.19922 -1.20898,5.86133 -12.17774,-6.0879 a 3.5909102,3.5909102 0 0 0 -3.72851,0.31641 l -18.42188,13.51563 a 3.5909102,3.5909102 0 0 0 -1.09961,1.31054 l -5.99414,12.19532 -4.02148,-1.69532 a 3.5909102,3.5909102 0 0 0 -4.32227,1.22852 l -2.32421,3.27148 a 3.5909102,3.5909102 0 0 0 -0.60157,2.7461 l 2.06641,10.93359 a 3.5909102,3.5909102 0 0 0 0.8125,1.68164 l 2.95312,3.41211 -2.60156,2.98633 a 3.5909102,3.5909102 0 0 0 -0.33984,4.25586 l 11.10547,17.82031 a 3.5909102,3.5909102 0 0 0 2.89062,1.6875 l 8.72852,0.38281 6.78515,4.95508 a 3.5909102,3.5909102 0 0 0 2.72461,0.64063 l 7.43555,-1.27539 5.33398,4.32421 -1.49218,10.50977 -4.18555,6.20313 a 3.5909102,3.5909102 0 0 0 1.82422,5.4082 l 20.83203,7.05859 a 3.5909102,3.5909102 0 0 0 4.19922,-1.50195 l 2.02148,-3.24219 2.74024,0.41797 a 3.5909102,3.5909102 0 0 0 3.72461,-1.88867 l 3.48434,-6.67383 34.58984,16.26758 a 3.5909102,3.5909102 0 0 0 3.4375,-0.20899 l 18.76758,-11.79492 a 3.5909102,3.5909102 0 0 0 1.08399,-1.05859 l 1.76172,-2.66406 4.61718,1.79296 a 3.5909102,3.5909102 0 0 0 3.04102,-0.20703 l 7.91992,-4.39062 a 3.5909102,3.5909102 0 0 0 1.22266,-1.11328 l 1.78125,-2.60352 7.5664,-4.41406 a 3.5909102,3.5909102 0 0 0 1.22852,-5.01563 l -3.50977,-5.57031 -0.68945,-6.82226 a 3.5909102,3.5909102 0 0 0 -0.88281,-2.01758 l -10.74219,-12.14649 -3.98437,-10.89843 a 3.5909102,3.5909102 0 0 0 -0.79297,-1.26368 l -7.23047,-7.46679 -0.25,-1.0586 1.60547,-1.12304 2.07226,-0.28907 1.42578,0.97266 1.07032,2.95508 a 3.5909102,3.5909102 0 0 0 1.93359,2.06836 l 7.66211,3.35742 a 3.5909102,3.5909102 0 0 0 2.2832,0.20117 l 7.49024,-1.80859 a 3.5909102,3.5909102 0 0 0 2.74023,-3.25781 l 0.77539,-11.96485 a 3.5909102,3.5909102 0 0 0 -0.0137,-0.625 l -2.20508,-20.08984 1.87305,-28.86914 a 3.5909102,3.5909102 0 0 0 -1.33008,-3.03125 l -2.29492,-1.84571 -1.625,-26.39453 a 3.5909102,3.5909102 0 0 0 -0.58594,-1.75781 l -5.85547,-8.86719 a 3.5909102,3.5909102 0 0 0 -2.35351,-1.55468 l -3.14453,-0.57227 -13.70118,-8.20508 -8.03711,-9.92187 a 3.5909102,3.5909102 0 0 0 -5.74023,0.21484 l -3.67578,5.30078 -2.95703,-7.03906 1.80664,-3.79883 a 3.5909102,3.5909102 0 0 0 0.3457,-1.68555 l -0.37695,-9.48632 5.86133,-0.35743 a 3.5909102,3.5909102 0 0 0 3.03125,-5.10937 l -2.20118,-4.68945 1.89649,-2.2793 a 3.5909102,3.5909102 0 0 0 0.51758,-0.83008 l 3.70117,-8.26367 a 3.5909102,3.5909102 0 0 0 -0.66016,-3.92578 l -14.66601,-15.60547 -7.39453,-9.92774 12.43945,-13.47656 a 3.5909102,3.5909102 0 0 0 0.66016,-3.85547 L 437.38101,74.284966 a 3.5909102,3.5909102 0 0 0 -0.38672,-0.683593 l -4.47656,-6.199219 a 3.5909102,3.5909102 0 0 0 -2.75,-1.484375 z m -1.18164,8.30664 2.35547,3.261719 10.62891,24.697262 -12.88086,13.95508 a 3.5909102,3.5909102 0 0 0 -0.24024,4.58007 l 9.29688,12.48243 a 3.5909102,3.5909102 0 0 0 0.26367,0.31445 l 13.16797,14.00977 -2.52344,5.63085 -3.04101,3.65626 a 3.5909102,3.5909102 0 0 0 -0.49024,3.82226 l 0.92383,1.96875 -4.08984,0.25 a 3.5909102,3.5909102 0 0 0 -3.36914,3.72656 l 0.48046,12.11328 -2.11718,4.45118 a 3.5909102,3.5909102 0 0 0 -0.0664,2.93359 l 4.99219,11.88086 a 3.5909102,3.5909102 0 0 0 3.77929,2.16797 l 3.27149,-0.43164 a 3.5909102,3.5909102 0 0 0 2.48242,-1.51367 l 2.52344,-3.64063 5.42187,6.69531 a 3.5909102,3.5909102 0 0 0 0.94532,0.82227 l 14.80664,8.86523 a 3.5909102,3.5909102 0 0 0 1.20312,0.45313 l 2.2793,0.41406 4.48047,6.78711 1.66211,27.01953 a 3.5909102,3.5909102 0 0 0 1.33203,2.57617 l 2.07812,1.67188 -1.77344,27.32226 a 3.5909102,3.5909102 0 0 0 0.0137,0.625 l 2.20312,20.08985 -0.58203,9.01562 -3.74414,0.9043 -5.14258,-2.25391 -0.93945,-2.59765 a 3.5909102,3.5909102 0 0 0 -1.35156,-1.74414 l -3.5293,-2.41016 a 3.5909102,3.5909102 0 0 0 -2.52344,-0.58984 l -4.30469,0.60156 a 3.5909102,3.5909102 0 0 0 -1.56054,0.61523 l -4.30469,3.01368 a 3.5909102,3.5909102 0 0 0 -1.43555,3.76367 l 1.03321,4.39062 a 3.5909102,3.5909102 0 0 0 0.91601,1.67383 l 7.38867,7.63086 3.95508,10.81836 a 3.5909102,3.5909102 0 0 0 0.6836,1.14648 l 10.42382,11.78711 0.65821,6.51172 a 3.5909102,3.5909102 0 0 0 0.53515,1.55274 l 1.97852,3.14062 -5.05469,2.94727 a 3.5909102,3.5909102 0 0 0 -1.1543,1.07422 l -1.75781,2.57031 -5.70508,3.16211 -5.74804,-2.23047 a 3.5909102,3.5909102 0 0 0 -4.29492,1.36719 l -2.92969,4.43164 -16.44727,10.33593 -35.92969,-16.89843 a 3.5909102,3.5909102 0 0 0 -4.71093,1.58789 l -3.89063,7.45312 -2.54297,-0.38867 a 3.5909102,3.5909102 0 0 0 -3.58789,1.65234 l -1.76758,2.83594 -13.67968,-4.63672 2.01562,-2.98633 a 3.5909102,3.5909102 0 0 0 0.57813,-1.50585 l 1.89453,-13.3418 a 3.5909102,3.5909102 0 0 0 -1.29492,-3.29492 l -8.17774,-6.62891 a 3.5909102,3.5909102 0 0 0 -2.86719,-0.74805 l -7.54101,1.29102 -6.43555,-4.69922 a 3.5909102,3.5909102 0 0 0 -1.96094,-0.6875 l -7.92382,-0.34766 -8.69922,-13.95898 2.90429,-3.33398 a 3.5909102,3.5909102 0 0 0 0.006,-4.70899 l -4.35937,-5.03516 -1.51563,-8.02539 4.17579,1.75977 a 3.5909102,3.5909102 0 0 0 4.61718,-1.72461 l 7.10156,-14.44531 15.94336,-11.69727 14.39649,7.19727 a 3.5909102,3.5909102 0 0 0 5.12109,-2.48828 l 2.32422,-11.27539 a 3.5909102,3.5909102 0 0 0 -0.0508,-1.66602 l -0.88672,-3.26562 5.05274,-2.69922 a 3.5909102,3.5909102 0 0 0 1.41992,-1.37305 l 10.07031,-17.47656 a 3.5909102,3.5909102 0 0 0 -0.6543,-4.41211 l -5.68359,-5.32813 1.43164,-32.6289 18.55078,-2.52344 a 3.5909102,3.5909102 0 0 0 2.71484,-5.1875 l -4.64843,-9.125 a 3.5909102,3.5909102 0 0 0 -4.4336,-1.74219 l -19.80468,7.2461 -4.93164,-2.2168 -7.5918,-21.27344 -1.73828,-21.00976 0.71093,-5.29688 4.36133,-3.66992 a 3.5909102,3.5909102 0 0 0 1.26172,-3.09766 l -0.51758,-5.25195 a 3.5909102,3.5909102 0 0 0 -3.01171,-3.19531 l -8.41797,-1.33204 -4.53907,-10.03124 a 3.5909102,3.5909102 0 0 0 -1.17773,-1.43555 l -2.0918,-1.50195 -1.43359,-11.023435 a 3.5909102,3.5909102 0 0 0 -1.08008,-2.13282 l -5.32812,-5.09374 8.03906,-9.03126 8.81836,6.79688 a 3.5909102,3.5909102 0 0 0 2.13672,0.74609 l 1.78906,0.0273 a 3.5909102,3.5909102 0 0 0 3.24609,-1.94141 l 1.4336,-2.77734 a 3.5909102,3.5909102 0 0 0 0.28515,-2.54297 l 2.11524,1.04101 a 3.5909102,3.5909102 0 0 0 1.16797,0.34375 l 14.0332,1.63477 a 3.5909102,3.5909102 0 0 0 0.92187,-0.0117 l 10.84751,-1.5488 a 3.5909102,3.5909102 0 0 0 1.27344,-0.4375 z m -18.38281,115.617181 0.9082,1.78321 -9.19922,1.25 z" />
    <path
       id="path826"
       d="m 355.01367,18.998047 c -112.79599,0 -204.47851,91.682523 -204.47851,204.478513 0,112.79599 91.68252,204.47852 204.47851,204.47852 112.79599,0 204.47852,-91.68253 204.47852,-204.47852 0,-112.79599 -91.68253,-204.478513 -204.47852,-204.478513 z m 0,22.677734 c 100.54034,0 181.80078,81.260439 181.80078,181.800779 0,100.54034 -81.26044,181.80078 -181.80078,181.80078 -100.54034,0 -181.80078,-81.26044 -181.80078,-181.80078 0,-100.54034 81.26044,-181.800779 181.80078,-181.800779 z" />
  </g>
</svg>
